<mxfile host="65bd71144e">
    <diagram id="gUzvwybEOisyNAxlf4O6" name="ページ1">
        <mxGraphModel dx="1639" dy="1101" grid="1" gridSize="10" guides="1" tooltips="1" connect="1" arrows="1" fold="1" page="1" pageScale="1" pageWidth="827" pageHeight="1169" math="0" shadow="0">
            <root>
                <mxCell id="0"/>
                <mxCell id="1" parent="0"/>
                <mxCell id="2" value="リバーシアプリケーション" style="rounded=0;whiteSpace=wrap;html=1;fillColor=none;verticalAlign=top;" parent="1" vertex="1">
                    <mxGeometry x="230" y="415" width="440" height="490" as="geometry"/>
                </mxCell>
                <mxCell id="3" value="粒度が大事" style="shape=note;whiteSpace=wrap;html=1;backgroundOutline=1;darkOpacity=0.05;fillColor=#dae8fc;strokeColor=#6c8ebf;" parent="1" vertex="1">
                    <mxGeometry x="30" y="10" width="80" height="100" as="geometry"/>
                </mxCell>
                <mxCell id="4" value="対戦する" style="ellipse;whiteSpace=wrap;html=1;fillColor=none;" parent="1" vertex="1">
                    <mxGeometry x="274" y="540" width="140" height="70" as="geometry"/>
                </mxCell>
                <mxCell id="7" value="プレイヤー" style="shape=umlActor;verticalLabelPosition=bottom;verticalAlign=top;html=1;fillColor=none;" parent="1" vertex="1">
                    <mxGeometry x="60" y="545" width="30" height="60" as="geometry"/>
                </mxCell>
                <mxCell id="8" value="思いついたことはメモ書きしておく" style="shape=note;whiteSpace=wrap;html=1;backgroundOutline=1;darkOpacity=0.05;fillColor=#dae8fc;strokeColor=#6c8ebf;" parent="1" vertex="1">
                    <mxGeometry x="120" y="10" width="80" height="100" as="geometry"/>
                </mxCell>
                <mxCell id="9" value="- 対戦を開始する&lt;br&gt;- 盤面を見る&lt;br&gt;- いしを打つ&lt;br&gt;&lt;div style=&quot;&quot;&gt;&lt;span style=&quot;background-color: initial;&quot;&gt;- 勝敗を確認する&lt;/span&gt;&lt;/div&gt;" style="shape=note;whiteSpace=wrap;html=1;backgroundOutline=1;darkOpacity=0.05;fillColor=#dae8fc;strokeColor=#6c8ebf;align=left;" parent="1" vertex="1">
                    <mxGeometry x="570" y="350" width="130" height="90" as="geometry"/>
                </mxCell>
                <mxCell id="10" value="どこまで実装するか決める" style="shape=note;whiteSpace=wrap;html=1;backgroundOutline=1;darkOpacity=0.05;fillColor=#dae8fc;strokeColor=#6c8ebf;" parent="1" vertex="1">
                    <mxGeometry x="210" y="10" width="80" height="100" as="geometry"/>
                </mxCell>
                <mxCell id="11" value="自分の過去の対戦結果を確認する" style="ellipse;whiteSpace=wrap;html=1;fillColor=none;" parent="1" vertex="1">
                    <mxGeometry x="274" y="640" width="140" height="70" as="geometry"/>
                </mxCell>
                <mxCell id="12" value="会員登録・ログイン・ログアウト" style="ellipse;whiteSpace=wrap;html=1;fillColor=none;" parent="1" vertex="1">
                    <mxGeometry x="270" y="420" width="100" height="50" as="geometry"/>
                </mxCell>
                <mxCell id="14" value="ランキングを確認する" style="ellipse;whiteSpace=wrap;html=1;fillColor=none;" parent="1" vertex="1">
                    <mxGeometry x="274" y="780" width="140" height="70" as="geometry"/>
                </mxCell>
                <mxCell id="15" value="一人で交互に打つ" style="ellipse;whiteSpace=wrap;html=1;fillColor=none;" parent="1" vertex="1">
                    <mxGeometry x="490" y="540" width="140" height="70" as="geometry"/>
                </mxCell>
                <mxCell id="16" value="コンピュータと対戦する" style="ellipse;whiteSpace=wrap;html=1;fillColor=none;" parent="1" vertex="1">
                    <mxGeometry x="510" y="720" width="140" height="70" as="geometry"/>
                </mxCell>
                <mxCell id="17" value="他のプレイヤーと対戦する" style="ellipse;whiteSpace=wrap;html=1;fillColor=none;" parent="1" vertex="1">
                    <mxGeometry x="510" y="800" width="140" height="70" as="geometry"/>
                </mxCell>
                <mxCell id="18" value="" style="endArrow=none;html=1;" parent="1" source="4" target="16" edge="1">
                    <mxGeometry relative="1" as="geometry">
                        <mxPoint x="290" y="605" as="sourcePoint"/>
                        <mxPoint x="450" y="605" as="targetPoint"/>
                    </mxGeometry>
                </mxCell>
                <mxCell id="21" value="" style="endArrow=none;html=1;entryX=0;entryY=0.5;entryDx=0;entryDy=0;" parent="1" source="4" target="17" edge="1">
                    <mxGeometry relative="1" as="geometry">
                        <mxPoint x="392.3913656640418" y="614.266461361284" as="sourcePoint"/>
                        <mxPoint x="551.6224699121183" y="735.7290024753445" as="targetPoint"/>
                    </mxGeometry>
                </mxCell>
                <mxCell id="22" value="" style="endArrow=none;html=1;" parent="1" source="4" edge="1">
                    <mxGeometry relative="1" as="geometry">
                        <mxPoint x="392.3913656640418" y="614.266461361284" as="sourcePoint"/>
                        <mxPoint x="490" y="575" as="targetPoint"/>
                    </mxGeometry>
                </mxCell>
                <mxCell id="23" value="" style="endArrow=none;html=1;" parent="1" source="7" target="4" edge="1">
                    <mxGeometry relative="1" as="geometry">
                        <mxPoint x="90.00000000000114" y="574.71" as="sourcePoint"/>
                        <mxPoint x="166" y="574.71" as="targetPoint"/>
                    </mxGeometry>
                </mxCell>
                <mxCell id="25" value="" style="endArrow=none;html=1;" parent="1" source="7" target="11" edge="1">
                    <mxGeometry relative="1" as="geometry">
                        <mxPoint x="100" y="585" as="sourcePoint"/>
                        <mxPoint x="283.99999999999886" y="585" as="targetPoint"/>
                    </mxGeometry>
                </mxCell>
                <mxCell id="26" value="" style="endArrow=none;html=1;" parent="1" source="7" target="14" edge="1">
                    <mxGeometry relative="1" as="geometry">
                        <mxPoint x="100" y="590.5738611938584" as="sourcePoint"/>
                        <mxPoint x="297.85698227617104" y="664.0956848900637" as="targetPoint"/>
                    </mxGeometry>
                </mxCell>
                <mxCell id="27" value="" style="endArrow=none;html=1;" parent="1" source="7" target="12" edge="1">
                    <mxGeometry relative="1" as="geometry">
                        <mxPoint x="90" y="580" as="sourcePoint"/>
                        <mxPoint x="319.819911244261" y="794.4560908991268" as="targetPoint"/>
                    </mxGeometry>
                </mxCell>
                <mxCell id="28" value="" style="endArrow=none;html=1;dashed=1;" parent="1" source="4" target="9" edge="1">
                    <mxGeometry relative="1" as="geometry">
                        <mxPoint x="412.00000000000114" y="539.43" as="sourcePoint"/>
                        <mxPoint x="488" y="539.43" as="targetPoint"/>
                    </mxGeometry>
                </mxCell>
                <mxCell id="29" value="粒度ってどうやって言語化するの？" style="shape=note;whiteSpace=wrap;html=1;backgroundOutline=1;darkOpacity=0.05;fillColor=#dae8fc;strokeColor=#6c8ebf;" parent="1" vertex="1">
                    <mxGeometry x="-10" y="90" width="80" height="100" as="geometry"/>
                </mxCell>
            </root>
        </mxGraphModel>
    </diagram>
</mxfile>